<?xml version="1.0" encoding="utf-8"?>
<!-- Generator: Adobe Illustrator 21.1.0, SVG Export Plug-In . SVG Version: 6.00 Build 0)  -->
<svg version="1.1" id="Layer_1" xmlns="http://www.w3.org/2000/svg" xmlns:xlink="http://www.w3.org/1999/xlink" x="0px" y="0px"
	 viewBox="0 0 300.2 68.7" style="enable-background:new 0 0 300.2 68.7;" xml:space="preserve">
<style type="text/css">
	.st0{fill:#4C4C4D;}
	.st1{fill:#F69732;}
</style>
<g>
	<g>
		<path class="st0" d="M0,66.5V3.4h20.1C39.7,3.4,52,17.7,52,35c0,17.5-12.3,31.5-31.9,31.5H0z M46.3,35c0-14.7-9.5-26.7-26.2-26.7
			H5.4v53.2h14.7C36.8,61.6,46.3,49.8,46.3,35z"/>
		<path class="st0" d="M56,43.6c0-13.3,8.6-23.9,21.9-23.9c13.5,0,22,10.6,22,23.9s-8.5,24-22,24C64.6,67.6,56,56.9,56,43.6z
			 M94.6,43.6c0-10.1-6-19.5-16.7-19.5c-10.6,0-16.6,9.4-16.6,19.5c0,10.2,6,19.6,16.6,19.6C88.7,63.2,94.6,53.8,94.6,43.6z"/>
		<path class="st0" d="M106.9,57.7V25.2h-7.6v-4.3h7.6V8.4h5v12.5h9.3v4.3h-9.3V57c0,3.7,1.5,6.2,4.7,6.2c2.2,0,4.1-1,5.1-2.2
			l1.9,3.8c-1.8,1.7-4,2.8-7.8,2.8C109.9,67.6,106.9,63.9,106.9,57.7z"/>
	</g>
	<g>
		<path class="st0" d="M208.3,66.5V3.4h25.9c10.6,0,17.4,6.1,17.4,16.1c0,7.9-5.4,13.3-11.1,14.5c6.7,1,12.3,8,12.3,15.5
			c0,10.5-6.8,17-18.1,17H208.3z M245.9,20.1c0-6.4-4.3-11.7-12.4-11.7h-19.9v23.3h19.9C241.6,31.7,245.9,26.6,245.9,20.1z
			 M247.1,49.1c0-6.4-4.4-12.5-13.2-12.5h-20.2v25h20.2C242.2,61.6,247.1,56.8,247.1,49.1z"/>
		<path class="st0" d="M256.3,43.6c0-13.3,8.6-23.9,21.9-23.9c13.5,0,22,10.6,22,23.9s-8.5,24-22,24
			C264.9,67.6,256.3,56.9,256.3,43.6z M295,43.6c0-10.1-6-19.5-16.7-19.5c-10.6,0-16.6,9.4-16.6,19.5c0,10.2,6.1,19.6,16.6,19.6
			C289,63.2,295,53.8,295,43.6z"/>
	</g>
	<g>
		<path class="st1" d="M200,33.8c0-14.2-9.4-29.6-27.3-33.8c1.1,2.1,2.5,5,2.5,8.4c0.3,12.2-10.3,16.5-18.2,20.9
			c2.4,3,10.7,13,14.3,17c2.9-4.5,5.1-9.7,7.3-15.1l9.4,4.4c-4,9.6-10.1,18.1-10.1,18.1s5.9,6.4,8,8.1
			C198.2,52.7,200.1,40.2,200,33.8z"/>
		<path class="st1" d="M170.8,62c-3.3,2.5-6.9,4.7-11.2,6.2c1.3,0.2,8.8,1.4,16.2-1.1C172.8,64.5,172.3,63.8,170.8,62z"/>
		<path class="st1" d="M164.9,8.3c-0.4-3.6-4.1-6.3-8.3-5.8c-9.4,1-8.9,13.8-3.9,19.8C157.5,19.4,165.9,16.7,164.9,8.3z"/>
		<path class="st1" d="M146.8,34.7c-4.6,3-8.5,7.7-8,14.2c0.3,3.1,1.5,5.9,3.7,8c5.7,5.4,16.4,3.3,21.3-1.6
			C157.9,48.6,152,42,146.8,34.7z"/>
		<path class="st1" d="M137.1,13.8c-3.2,4.4-6.9,11.8-6.4,21.8c3-3.6,7.3-6.1,11.6-8.5C139.9,23.4,138.3,18.6,137.1,13.8z"/>
	</g>
</g>
</svg>
